# xmcd
#
# Track frame offsets:
#	150
#	16645
#	31852
#	58362
#	78855
#	112502
#	130805
#	153627
#	171092
#	191362
#
# Disc length: 2758 seconds
#
# Revision: 1
# Processed by: cddbd v1.4PL0 Copyright (c) Steve Scherf et al.
# Submitted via: audiograbber 1.80.04
#
DISCID=6c0ac40a
DTITLE=Ulf Christiansson - svenska folkets psalmer
DYEAR=1900
DGENRE=
TTITLE0=Hos Jesus
TTITLE1=Nöjd och glader
TTITLE2=Löftena kunna ej svika
TTITLE3=Helig, Helig, Helig
TTITLE4=En liten stund med Jesus
TTITLE5=Allt till Jesus
TTITLE6=Guldgrävarsången
TTITLE7=Det finns kraft
TTITLE8=Klippa du som brast för mig
TTITLE9=Jesus det skönaste
EXTD=
EXTT0=
EXTT1=
EXTT2=
EXTT3=
EXTT4=
EXTT5=
EXTT6=
EXTT7=
EXTT8=
EXTT9=
PLAYORDER=
